<svg width="92" height="40" viewBox="0 0 92 40" fill="none" xmlns="http://www.w3.org/2000/svg">
<rect width="92" height="32" rx="2" fill="#A8EFFF"/>
<path d="M15.8773 17.0625V21H14.8716V12.2727H15.8773V15.4773H15.9625C16.1159 15.1392 16.3461 14.8707 16.6529 14.6719C16.9625 14.4702 17.3745 14.3693 17.8887 14.3693C18.3347 14.3693 18.7253 14.4588 19.0605 14.6378C19.3958 14.8139 19.6557 15.0852 19.8404 15.4517C20.0279 15.8153 20.1216 16.2784 20.1216 16.8409V21H19.1159V16.9091C19.1159 16.3892 18.981 15.9872 18.7111 15.7031C18.4441 15.4162 18.0733 15.2727 17.5989 15.2727C17.2694 15.2727 16.9739 15.3423 16.7125 15.4815C16.454 15.6207 16.2495 15.8239 16.0989 16.0909C15.9512 16.358 15.8773 16.6818 15.8773 17.0625ZM24.7058 21.1364C24.0751 21.1364 23.5311 20.9972 23.0737 20.7188C22.6191 20.4375 22.2683 20.0455 22.0211 19.5426C21.7768 19.0369 21.6547 18.4489 21.6547 17.7784C21.6547 17.108 21.7768 16.517 22.0211 16.0057C22.2683 15.4915 22.612 15.0909 23.0524 14.804C23.4956 14.5142 24.0126 14.3693 24.6035 14.3693C24.9444 14.3693 25.2811 14.4261 25.6135 14.5398C25.9458 14.6534 26.2484 14.8381 26.5211 15.0938C26.7939 15.3466 27.0112 15.6818 27.1731 16.0994C27.335 16.517 27.416 17.0312 27.416 17.642V18.0682H22.3706V17.1989H26.3933C26.3933 16.8295 26.3194 16.5 26.1717 16.2102C26.0268 15.9205 25.8194 15.6918 25.5495 15.5241C25.2825 15.3565 24.9672 15.2727 24.6035 15.2727C24.2029 15.2727 23.8564 15.3722 23.5637 15.571C23.274 15.767 23.051 16.0227 22.8947 16.3381C22.7385 16.6534 22.6603 16.9915 22.6603 17.3523V17.9318C22.6603 18.4261 22.7456 18.8452 22.916 19.1889C23.0893 19.5298 23.3294 19.7898 23.6362 19.9688C23.943 20.1449 24.2995 20.233 24.7058 20.233C24.97 20.233 25.2086 20.196 25.4217 20.1222C25.6376 20.0455 25.8237 19.9318 25.9799 19.7812C26.1362 19.6278 26.2569 19.4375 26.3422 19.2102L27.3137 19.483C27.2115 19.8125 27.0396 20.1023 26.7981 20.3523C26.5566 20.5994 26.2583 20.7926 25.9032 20.9318C25.5481 21.0682 25.149 21.1364 24.7058 21.1364ZM29.9515 12.2727V21H28.9458V12.2727H29.9515ZM32.7992 12.2727V21H31.7935V12.2727H32.7992ZM37.3002 21.1364C36.7093 21.1364 36.1909 20.9957 35.7449 20.7145C35.3017 20.4332 34.9551 20.0398 34.7051 19.5341C34.4579 19.0284 34.3343 18.4375 34.3343 17.7614C34.3343 17.0795 34.4579 16.4844 34.7051 15.9759C34.9551 15.4673 35.3017 15.0724 35.7449 14.7912C36.1909 14.5099 36.7093 14.3693 37.3002 14.3693C37.8912 14.3693 38.4082 14.5099 38.8514 14.7912C39.2974 15.0724 39.644 15.4673 39.8912 15.9759C40.1412 16.4844 40.2662 17.0795 40.2662 17.7614C40.2662 18.4375 40.1412 19.0284 39.8912 19.5341C39.644 20.0398 39.2974 20.4332 38.8514 20.7145C38.4082 20.9957 37.8912 21.1364 37.3002 21.1364ZM37.3002 20.233C37.7491 20.233 38.1184 20.1179 38.4082 19.8878C38.698 19.6577 38.9125 19.3551 39.0517 18.9801C39.1909 18.6051 39.2605 18.1989 39.2605 17.7614C39.2605 17.3239 39.1909 16.9162 39.0517 16.5384C38.9125 16.1605 38.698 15.8551 38.4082 15.6222C38.1184 15.3892 37.7491 15.2727 37.3002 15.2727C36.8514 15.2727 36.4821 15.3892 36.1923 15.6222C35.9025 15.8551 35.688 16.1605 35.5488 16.5384C35.4096 16.9162 35.34 17.3239 35.34 17.7614C35.34 18.1989 35.4096 18.6051 35.5488 18.9801C35.688 19.3551 35.9025 19.6577 36.1923 19.8878C36.4821 20.1179 36.8514 20.233 37.3002 20.233ZM46.6593 21L44.665 14.4545H45.7218L47.1365 19.4659H47.2047L48.6025 14.4545H49.6763L51.057 19.4489H51.1252L52.54 14.4545H53.5968L51.6025 21H50.6138L49.182 15.9716H49.0797L47.6479 21H46.6593ZM57.3627 21.1364C56.7718 21.1364 56.2534 20.9957 55.8074 20.7145C55.3642 20.4332 55.0176 20.0398 54.7676 19.5341C54.5204 19.0284 54.3968 18.4375 54.3968 17.7614C54.3968 17.0795 54.5204 16.4844 54.7676 15.9759C55.0176 15.4673 55.3642 15.0724 55.8074 14.7912C56.2534 14.5099 56.7718 14.3693 57.3627 14.3693C57.9537 14.3693 58.4707 14.5099 58.9139 14.7912C59.3599 15.0724 59.7065 15.4673 59.9537 15.9759C60.2037 16.4844 60.3287 17.0795 60.3287 17.7614C60.3287 18.4375 60.2037 19.0284 59.9537 19.5341C59.7065 20.0398 59.3599 20.4332 58.9139 20.7145C58.4707 20.9957 57.9537 21.1364 57.3627 21.1364ZM57.3627 20.233C57.8116 20.233 58.1809 20.1179 58.4707 19.8878C58.7605 19.6577 58.975 19.3551 59.1142 18.9801C59.2534 18.6051 59.323 18.1989 59.323 17.7614C59.323 17.3239 59.2534 16.9162 59.1142 16.5384C58.975 16.1605 58.7605 15.8551 58.4707 15.6222C58.1809 15.3892 57.8116 15.2727 57.3627 15.2727C56.9139 15.2727 56.5446 15.3892 56.2548 15.6222C55.965 15.8551 55.7505 16.1605 55.6113 16.5384C55.4721 16.9162 55.4025 17.3239 55.4025 17.7614C55.4025 18.1989 55.4721 18.6051 55.6113 18.9801C55.7505 19.3551 55.965 19.6577 56.2548 19.8878C56.5446 20.1179 56.9139 20.233 57.3627 20.233ZM61.8638 21V14.4545H62.8354V15.4432H62.9036C63.0229 15.1193 63.2388 14.8565 63.5513 14.6548C63.8638 14.4531 64.2161 14.3523 64.6081 14.3523C64.682 14.3523 64.7743 14.3537 64.8851 14.3565C64.9959 14.3594 65.0797 14.3636 65.1365 14.3693V15.392C65.1025 15.3835 65.0243 15.3707 64.9022 15.3537C64.7828 15.3338 64.6564 15.3239 64.5229 15.3239C64.2047 15.3239 63.9206 15.3906 63.6706 15.5241C63.4235 15.6548 63.2275 15.8366 63.0826 16.0696C62.9405 16.2997 62.8695 16.5625 62.8695 16.858V21H61.8638ZM67.3343 12.2727V21H66.3287V12.2727H67.3343ZM71.6479 21.1364C71.1025 21.1364 70.6209 20.9986 70.2033 20.723C69.7857 20.4446 69.459 20.0526 69.2232 19.5469C68.9874 19.0384 68.8695 18.4375 68.8695 17.7443C68.8695 17.0568 68.9874 16.4602 69.2232 15.9545C69.459 15.4489 69.7871 15.0582 70.2076 14.7827C70.628 14.5071 71.1138 14.3693 71.665 14.3693C72.0911 14.3693 72.4277 14.4403 72.6749 14.5824C72.9249 14.7216 73.1152 14.8807 73.2459 15.0597C73.3794 15.2358 73.4831 15.3807 73.557 15.4943H73.6422V12.2727H74.6479V21H73.6763V19.9943H73.557C73.4831 20.1136 73.378 20.2642 73.2417 20.446C73.1053 20.625 72.9107 20.7855 72.6578 20.9276C72.405 21.0668 72.0684 21.1364 71.6479 21.1364ZM71.7843 20.233C72.1877 20.233 72.5286 20.1278 72.807 19.9176C73.0854 19.7045 73.2971 19.4105 73.4419 19.0355C73.5868 18.6577 73.6593 18.2216 73.6593 17.7273C73.6593 17.2386 73.5882 16.8111 73.4462 16.4446C73.3042 16.0753 73.0939 15.7884 72.8155 15.5838C72.5371 15.3764 72.1934 15.2727 71.7843 15.2727C71.3581 15.2727 71.003 15.3821 70.7189 15.6009C70.4377 15.8168 70.226 16.1108 70.084 16.483C69.9448 16.8523 69.8752 17.267 69.8752 17.7273C69.8752 18.1932 69.9462 18.6165 70.0882 18.9972C70.2331 19.375 70.4462 19.6761 70.7275 19.9006C71.0115 20.1222 71.3638 20.233 71.7843 20.233ZM77.959 12.2727L77.8738 18.5455H76.8851L76.7999 12.2727H77.959ZM77.3794 21.0682C77.1692 21.0682 76.9888 20.9929 76.8382 20.8423C76.6877 20.6918 76.6124 20.5114 76.6124 20.3011C76.6124 20.0909 76.6877 19.9105 76.8382 19.7599C76.9888 19.6094 77.1692 19.5341 77.3794 19.5341C77.5897 19.5341 77.7701 19.6094 77.9206 19.7599C78.0712 19.9105 78.1465 20.0909 78.1465 20.3011C78.1465 20.4403 78.111 20.5682 78.04 20.6847C77.9718 20.8011 77.8794 20.8949 77.763 20.9659C77.6493 21.0341 77.5215 21.0682 77.3794 21.0682Z" fill="#424242"/>
<path d="M73.2838 39.0844L66.1155 28.0108L80.3784 27.9752L73.2838 39.0844Z" fill="#A8EFFF"/>
</svg>
