<svg width="32" height="32" viewBox="0 0 32 32" fill="none" xmlns="http://www.w3.org/2000/svg">
<path d="M29.7143 0H2.27857C1.02143 0 0 1.03571 0 2.30714V29.6929C0 30.9643 1.02143 32 2.27857 32H29.7143C30.9714 32 32 30.9643 32 29.6929V2.30714C32 1.03571 30.9714 0 29.7143 0ZM9.67143 27.4286C7.05202 27.4286 4.92857 25.3051 4.92857 22.6857V14.5321C4.92857 13.2205 5.9919 12.1571 7.30357 12.1571C8.61525 12.1571 9.67857 13.2205 9.67857 14.5321V27.4214C9.67857 27.4254 9.67537 27.4286 9.67143 27.4286ZM7.3 10.0714C5.77857 10.0714 4.55 8.83571 4.55 7.32143C4.55 5.80714 5.77857 4.57143 7.3 4.57143C8.81429 4.57143 10.05 5.80714 10.05 7.32143C10.05 8.84286 8.82143 10.0714 7.3 10.0714ZM27.45 25.0571C27.45 26.3668 26.3883 27.4286 25.0786 27.4286C23.7689 27.4286 22.7071 26.3668 22.7071 25.0571V20C22.7071 18.2286 22.6714 15.95 20.2429 15.95C17.7714 15.95 17.3929 17.8786 17.3929 19.8714V25.0571C17.3929 26.3668 16.3311 27.4286 15.0214 27.4286C13.7117 27.4286 12.65 26.3668 12.65 25.0571V14.4321C12.65 13.1757 13.6686 12.1571 14.925 12.1571H16.1571C16.7331 12.1571 17.2 12.624 17.2 13.2V14.2027C17.2 14.2249 17.218 14.2429 17.2401 14.2429C17.255 14.2429 17.2685 14.2348 17.2756 14.2217C17.9182 13.0281 19.4635 11.7786 21.7571 11.7786C26.5571 11.7786 27.45 14.9429 27.45 19.0571V25.0571Z" fill="#424242"/>
</svg>
