<svg width="32" height="32" viewBox="0 0 32 32" fill="none" xmlns="http://www.w3.org/2000/svg">
<path d="M28.5714 0H3.42857C1.535 0 0 1.535 0 3.42857V28.5714C0 30.465 1.535 32 3.42857 32H28.5714C30.465 32 32 30.465 32 28.5714V3.42857C32 1.535 30.465 0 28.5714 0ZM12.7226 16.436C6.24493 11.7348 6.31093 11.7229 4.57143 10.3691V8.57143C4.57143 7.62464 5.33893 6.85714 6.28571 6.85714H25.7143C26.6611 6.85714 27.4286 7.62464 27.4286 8.57143V10.3691C25.6878 11.724 25.7547 11.7351 19.2774 16.4361C18.5274 16.9829 17.0351 18.3018 16 18.2856C14.9641 18.3012 13.4738 16.9837 12.7226 16.436ZM27.4286 13.2696V23.4286C27.4286 24.3754 26.6611 25.1429 25.7143 25.1429H6.28571C5.33893 25.1429 4.57143 24.3754 4.57143 23.4286V13.2696C5.56843 14.0406 6.95207 15.0722 11.3788 18.2849C12.3904 19.0236 14.0913 20.581 15.9998 20.5714C17.9203 20.5809 19.6453 18.997 20.6226 18.2839C25.0482 15.0721 26.4316 14.0406 27.4286 13.2696Z" fill="#424242"/>
</svg>
